<svg width="44" height="44" viewBox="0 0 44 44" fill="none" xmlns="http://www.w3.org/2000/svg">
<g clip-path="url(#clip0_613_360)">
<path d="M42.8796 21.7854C42.8796 10.2945 33.5695 0.984375 22.0786 0.984375C10.5877 0.984375 1.27759 10.2945 1.27759 21.7854C1.27759 32.1674 8.88421 40.773 18.8284 42.3347V27.7984H13.5443V21.7854H18.8284V17.2024C18.8284 11.9896 21.9318 9.11018 26.685 9.11018C28.9614 9.11018 31.3417 9.51614 31.3417 9.51614V14.6325H28.7181C26.1348 14.6325 25.3287 16.2362 25.3287 17.881V21.7854H31.0977L30.175 27.7984H25.3287V42.3347C35.2729 40.773 42.8796 32.1674 42.8796 21.7854Z" fill="white"/>
</g>
<defs>
<clipPath id="clip0_613_360">
<rect width="42.944" height="42.944" fill="white" transform="translate(0.606567 0.313354)"/>
</clipPath>
</defs>
</svg>
