<svg width="36" height="41" viewBox="0 0 36 41" fill="none" xmlns="http://www.w3.org/2000/svg">
<g clip-path="url(#clip0_613_362)">
<path d="M18.3628 11.7827C13.3839 11.7827 9.368 15.7986 9.368 20.7774C9.368 25.7562 13.3839 29.7722 18.3628 29.7722C23.3416 29.7722 27.3575 25.7562 27.3575 20.7774C27.3575 15.7986 23.3416 11.7827 18.3628 11.7827ZM18.3628 26.6252C15.1453 26.6252 12.515 24.0027 12.515 20.7774C12.515 17.5521 15.1375 14.9297 18.3628 14.9297C21.588 14.9297 24.2105 17.5521 24.2105 20.7774C24.2105 24.0027 21.5802 26.6252 18.3628 26.6252ZM29.8234 11.4147C29.8234 12.5812 28.884 13.5127 27.7254 13.5127C26.559 13.5127 25.6274 12.5733 25.6274 11.4147C25.6274 10.2561 26.5668 9.31674 27.7254 9.31674C28.884 9.31674 29.8234 10.2561 29.8234 11.4147ZM35.7808 13.544C35.6477 10.7337 35.0058 8.24426 32.9469 6.19324C30.8959 4.14221 28.4065 3.50029 25.5961 3.35938C22.6997 3.19499 14.018 3.19499 11.1216 3.35938C8.31901 3.49246 5.8296 4.13438 3.77075 6.18541C1.7119 8.23643 1.0778 10.7258 0.936895 13.5362C0.7725 16.4327 0.7725 25.1143 0.936895 28.0108C1.06998 30.8212 1.7119 33.3106 3.77075 35.3616C5.8296 37.4126 8.31118 38.0545 11.1216 38.1954C14.018 38.3598 22.6997 38.3598 25.5961 38.1954C28.4065 38.0624 30.8959 37.4204 32.9469 35.3616C34.998 33.3106 35.6399 30.8212 35.7808 28.0108C35.9452 25.1143 35.9452 16.4405 35.7808 13.544ZM32.0388 31.1186C31.4282 32.653 30.2462 33.8351 28.704 34.4535C26.3946 35.3694 20.9148 35.1581 18.3628 35.1581C15.8107 35.1581 10.3231 35.3616 8.02153 34.4535C6.48718 33.8429 5.3051 32.6608 4.68666 31.1186C3.77075 28.8093 3.98212 23.3295 3.98212 20.7774C3.98212 18.2254 3.77858 12.7377 4.68666 10.4362C5.29727 8.90184 6.47935 7.71976 8.02153 7.10132C10.3309 6.18541 15.8107 6.39677 18.3628 6.39677C20.9148 6.39677 26.4025 6.19324 28.704 7.10132C30.2383 7.71193 31.4204 8.89401 32.0388 10.4362C32.9548 12.7455 32.7434 18.2254 32.7434 20.7774C32.7434 23.3295 32.9548 28.8171 32.0388 31.1186Z" fill="white"/>
</g>
<defs>
<clipPath id="clip0_613_362">
<rect width="35.0709" height="40.081" fill="white" transform="translate(0.819458 0.744751)"/>
</clipPath>
</defs>
</svg>
