<svg width="41" height="46" viewBox="0 0 41 46" fill="none" xmlns="http://www.w3.org/2000/svg">
<g clip-path="url(#clip0_613_358)">
<path d="M37.475 3.70007H3.11082C1.53621 3.70007 0.256836 4.97707 0.256836 6.54469V40.3102C0.256836 41.8779 1.53621 43.1549 3.11082 43.1549H37.475C39.0496 43.1549 40.3379 41.8779 40.3379 40.3102V6.54469C40.3379 4.97707 39.0496 3.70007 37.475 3.70007ZM12.3706 37.5185H6.43003V18.6894H12.3796V37.5185H12.3706ZM9.40032 16.1178C7.49469 16.1178 5.95586 14.5942 5.95586 12.7271C5.95586 10.8601 7.49469 9.33647 9.40032 9.33647C11.297 9.33647 12.8448 10.8601 12.8448 12.7271C12.8448 14.603 11.306 16.1178 9.40032 16.1178ZM34.6389 37.5185H28.6983V28.3593C28.6983 26.1752 28.6535 23.3658 25.6117 23.3658C22.5161 23.3658 22.042 25.7437 22.042 28.2008V37.5185H16.1014V18.6894H21.8004V21.261H21.8809C22.6772 19.7814 24.6186 18.2226 27.5084 18.2226C33.5205 18.2226 34.6389 22.124 34.6389 27.1968V37.5185Z" fill="white"/>
</g>
<defs>
<clipPath id="clip0_613_358">
<rect width="40.081" height="45.0912" fill="white" transform="translate(0.256836 0.881836)"/>
</clipPath>
</defs>
</svg>
