<svg width="50" height="50" viewBox="0 0 50 50" fill="none" xmlns="http://www.w3.org/2000/svg">
<mask id="mask0_613_552" style="mask-type:alpha" maskUnits="userSpaceOnUse" x="0" y="0" width="50" height="50">
<rect width="50" height="50" fill="#B8B8B8"/>
</mask>
<g mask="url(#mask0_613_552)">
<path d="M29.1666 20.625V17.0833C30.3124 16.5972 31.4846 16.2326 32.6833 15.9896C33.8805 15.7465 35.1388 15.625 36.4583 15.625C37.361 15.625 38.2464 15.6945 39.1145 15.8333C39.9826 15.9722 40.8333 16.1458 41.6666 16.3542V19.6875C40.8333 19.375 39.9916 19.141 39.1416 18.9854C38.2902 18.8285 37.3958 18.75 36.4583 18.75C35.1388 18.75 33.8714 18.9153 32.6562 19.2458C31.4409 19.575 30.2777 20.0347 29.1666 20.625ZM29.1666 32.0833V28.5417C30.3124 28.0556 31.4846 27.691 32.6833 27.4479C33.8805 27.2049 35.1388 27.0833 36.4583 27.0833C37.361 27.0833 38.2464 27.1528 39.1145 27.2917C39.9826 27.4306 40.8333 27.6042 41.6666 27.8125V31.1458C40.8333 30.8333 39.9916 30.5993 39.1416 30.4438C38.2902 30.2868 37.3958 30.2083 36.4583 30.2083C35.1388 30.2083 33.8714 30.3646 32.6562 30.6771C31.4409 30.9896 30.2777 31.4583 29.1666 32.0833ZM29.1666 26.3542V22.8125C30.3124 22.3264 31.4846 21.9618 32.6833 21.7188C33.8805 21.4757 35.1388 21.3542 36.4583 21.3542C37.361 21.3542 38.2464 21.4236 39.1145 21.5625C39.9826 21.7014 40.8333 21.875 41.6666 22.0833V25.4167C40.8333 25.1042 39.9916 24.8701 39.1416 24.7146C38.2902 24.5576 37.3958 24.4792 36.4583 24.4792C35.1388 24.4792 33.8714 24.6445 32.6562 24.975C31.4409 25.3042 30.2777 25.7639 29.1666 26.3542ZM13.5416 33.3333C15.1735 33.3333 16.7624 33.5153 18.3083 33.8792C19.8527 34.2445 21.3888 34.7917 22.9166 35.5208V15C21.493 14.1667 19.9826 13.5417 18.3853 13.125C16.7881 12.7083 15.1735 12.5 13.5416 12.5C12.2916 12.5 11.0506 12.6215 9.81867 12.8646C8.58533 13.1076 7.39575 13.4722 6.24992 13.9583V34.5833C7.4652 34.1667 8.67214 33.8542 9.87075 33.6458C11.068 33.4375 12.2916 33.3333 13.5416 33.3333ZM27.0833 35.5208C28.611 34.7917 30.1478 34.2445 31.6937 33.8792C33.2381 33.5153 34.8263 33.3333 36.4583 33.3333C37.7083 33.3333 38.9326 33.4375 40.1312 33.6458C41.3284 33.8542 42.5346 34.1667 43.7499 34.5833V13.9583C42.6041 13.4722 41.4152 13.1076 40.1833 12.8646C38.9499 12.6215 37.7083 12.5 36.4583 12.5C34.8263 12.5 33.2117 12.7083 31.6145 13.125C30.0173 13.5417 28.5069 14.1667 27.0833 15V35.5208ZM24.9999 41.6667C23.3333 40.3472 21.5277 39.3229 19.5833 38.5938C17.6388 37.8646 15.6249 37.5 13.5416 37.5C12.0833 37.5 10.6513 37.691 9.24575 38.0729C7.83881 38.4549 6.49297 38.9931 5.20825 39.6875C4.47909 40.0695 3.77631 40.0521 3.09992 39.6354C2.42214 39.2188 2.08325 38.6111 2.08325 37.8125V12.7083C2.08325 12.3264 2.17909 11.9618 2.37075 11.6146C2.56103 11.2674 2.84714 11.007 3.22909 10.8333C4.82631 10 6.49297 9.37501 8.22908 8.95834C9.9652 8.54168 11.736 8.33334 13.5416 8.33334C15.5555 8.33334 17.5263 8.59376 19.4541 9.11459C21.3805 9.63543 23.2291 10.4167 24.9999 11.4583C26.7708 10.4167 28.6201 9.63543 30.5478 9.11459C32.4742 8.59376 34.4444 8.33334 36.4583 8.33334C38.2638 8.33334 40.0346 8.54168 41.7707 8.95834C43.5069 9.37501 45.1735 10 46.7708 10.8333C47.1527 11.007 47.4395 11.2674 47.6312 11.6146C47.8214 11.9618 47.9166 12.3264 47.9166 12.7083V37.8125C47.9166 38.6111 47.5784 39.2188 46.902 39.6354C46.2242 40.0521 45.5208 40.0695 44.7916 39.6875C43.5069 38.9931 42.161 38.4549 40.7541 38.0729C39.3485 37.691 37.9166 37.5 36.4583 37.5C34.3749 37.5 32.361 37.8646 30.4166 38.5938C28.4721 39.3229 26.6666 40.3472 24.9999 41.6667Z" fill="#45577A"/>
</g>
</svg>
