<svg width="246" height="57" viewBox="0 0 246 57" fill="none" xmlns="http://www.w3.org/2000/svg">
<path d="M107.655 40.7356H99.4045V17.4629H107.723C110.064 17.4629 112.079 17.9288 113.768 18.8606C115.458 19.7848 116.757 21.1144 117.666 22.8492C118.583 24.5841 119.041 26.6598 119.041 29.0765C119.041 31.5007 118.583 33.5841 117.666 35.3265C116.757 37.0689 115.45 38.4061 113.745 39.3379C112.048 40.2697 110.018 40.7356 107.655 40.7356ZM104.325 36.5197H107.45C108.905 36.5197 110.128 36.2621 111.12 35.747C112.12 35.2242 112.87 34.4174 113.37 33.3265C113.878 32.228 114.132 30.8114 114.132 29.0765C114.132 27.3568 113.878 25.9515 113.37 24.8606C112.87 23.7697 112.124 22.9667 111.132 22.4515C110.139 21.9364 108.916 21.6788 107.461 21.6788H104.325V36.5197ZM126.569 40.7356L119.91 17.4629H125.285L129.138 33.6333H129.331L133.581 17.4629H138.183L142.422 33.6674H142.626L146.478 17.4629H151.853L145.194 40.7356H140.399L135.967 25.5197H135.785L131.365 40.7356H126.569ZM159.246 40.7356L152.587 17.4629H157.962L161.814 33.6333H162.007L166.257 17.4629H170.859L175.098 33.6674H175.302L179.155 17.4629H184.53L177.871 40.7356H173.075L168.643 25.5197H168.462L164.041 40.7356H159.246ZM186.683 17.4629H192.751L199.161 33.0992H199.433L205.842 17.4629H211.911V40.7356H207.138V25.5879H206.945L200.922 40.622H197.672L191.649 25.531H191.456V40.7356H186.683V17.4629ZM215.348 40.7356V37.1901L223.632 29.5197C224.337 28.8379 224.928 28.2242 225.405 27.6788C225.89 27.1333 226.257 26.5992 226.507 26.0765C226.757 25.5462 226.882 24.9742 226.882 24.3606C226.882 23.6788 226.727 23.0917 226.416 22.5992C226.106 22.0992 225.681 21.7167 225.144 21.4515C224.606 21.1788 223.996 21.0424 223.314 21.0424C222.602 21.0424 221.981 21.1864 221.45 21.4742C220.92 21.7621 220.511 22.175 220.223 22.7129C219.935 23.2507 219.791 23.8909 219.791 24.6333H215.121C215.121 23.1106 215.466 21.7886 216.155 20.6674C216.844 19.5462 217.81 18.6788 219.053 18.0651C220.295 17.4515 221.727 17.1447 223.348 17.1447C225.015 17.1447 226.466 17.4401 227.7 18.031C228.943 18.6144 229.909 19.425 230.598 20.4629C231.288 21.5007 231.632 22.6901 231.632 24.031C231.632 24.9098 231.458 25.7773 231.11 26.6333C230.769 27.4894 230.159 28.4401 229.28 29.4856C228.401 30.5235 227.163 31.7697 225.564 33.2242L222.166 36.5538V36.7129H231.939V40.7356H215.348Z" fill="#45577A"/>
<path d="M42.5883 43.2773L15.698 31.2891V44.6926L42.5883 56.2646L70.8106 44.6926V31.2891L42.5883 43.2773Z" fill="#A1AFC9"/>
<path d="M0.962402 19.717L42.5883 0.735596L85.9624 19.717L42.5883 36.2841L0.962402 19.717Z" fill="#45577A"/>
<path d="M36.4624 19.7356L21.9624 28.2356L23.4624 28.7356L37.9624 20.2356L36.4624 19.7356Z" fill="white"/>
<path d="M23.9624 28.4942L21.9624 27.7356V48.2184L23.9624 49.7356V28.4942Z" fill="#45577A"/>
<circle cx="22.9624" cy="41.7356" r="2" fill="#45577A"/>
<path d="M24.9624 48.2355C23.3624 45.4355 21.6291 47.0688 20.9624 48.2355V53.7355H24.9624V48.2355Z" fill="#45577A"/>
</svg>
